<svg width="292" height="79" viewBox="0 0 292 79" fill="none" xmlns="http://www.w3.org/2000/svg">
<path d="M5.93457 49V13.3H28.4846V19.55H13.4846V27H16.4846C19.8512 27 22.6012 27.4667 24.7346 28.4C26.9012 29.3333 28.5012 30.6167 29.5346 32.25C30.5679 33.8833 31.0846 35.75 31.0846 37.85C31.0846 40.1833 30.5679 42.1833 29.5346 43.85C28.5012 45.5167 26.9012 46.8 24.7346 47.7C22.5679 48.5667 19.7679 49 16.3346 49H5.93457ZM16.0346 42.8C18.3346 42.8 20.1346 42.4333 21.4346 41.7C22.7679 40.9667 23.4346 39.6833 23.4346 37.85C23.4346 36.5833 23.1012 35.6167 22.4346 34.95C21.8012 34.2833 20.8846 33.8333 19.6846 33.6C18.5179 33.3333 17.1012 33.2 15.4346 33.2H13.4846V42.8H16.0346ZM62.1693 49L59.5693 40.5H46.5693L43.9693 49H35.8193L48.4193 13.15H57.6693L70.3193 49H62.1693ZM55.1693 25.85C55.0027 25.2833 54.786 24.5667 54.5193 23.7C54.2527 22.8333 53.986 21.95 53.7193 21.05C53.4527 20.15 53.236 19.3667 53.0693 18.7C52.9027 19.3667 52.6693 20.2 52.3693 21.2C52.1027 22.1667 51.836 23.1 51.5693 24C51.336 24.8667 51.1527 25.4833 51.0193 25.85L48.4693 34.15H57.7693L55.1693 25.85ZM92.4408 49L83.8408 21H83.6408C83.6742 21.6667 83.7242 22.6667 83.7908 24C83.8575 25.3333 83.9242 26.7667 83.9908 28.3C84.0575 29.8 84.0908 31.1667 84.0908 32.4V49H77.3408V13.3H87.6408L96.0908 40.6H96.2408L105.191 13.3H115.491V49H108.441V32.1C108.441 30.9667 108.457 29.6667 108.491 28.2C108.557 26.7333 108.607 25.35 108.641 24.05C108.707 22.7167 108.757 21.7167 108.791 21.05H108.591L99.3908 49H92.4408ZM142.159 19.1C140.725 19.1 139.442 19.3833 138.309 19.95C137.209 20.5167 136.275 21.3333 135.509 22.4C134.742 23.4333 134.159 24.7 133.759 26.2C133.392 27.7 133.209 29.3833 133.209 31.25C133.209 33.7833 133.509 35.95 134.109 37.75C134.742 39.5167 135.725 40.8667 137.059 41.8C138.392 42.7333 140.092 43.2 142.159 43.2C143.625 43.2 145.075 43.0333 146.509 42.7C147.975 42.3667 149.559 41.9 151.259 41.3V47.65C149.692 48.2833 148.142 48.75 146.609 49.05C145.075 49.35 143.359 49.5 141.459 49.5C137.792 49.5 134.759 48.75 132.359 47.25C129.992 45.7167 128.242 43.5833 127.109 40.85C125.975 38.0833 125.409 34.8667 125.409 31.2C125.409 28.5 125.775 26.0333 126.509 23.8C127.242 21.5333 128.309 19.5833 129.709 17.95C131.142 16.3167 132.892 15.05 134.959 14.15C137.059 13.25 139.459 12.8 142.159 12.8C143.925 12.8 145.692 13.0333 147.459 13.5C149.259 13.9333 150.975 14.5333 152.609 15.3L150.159 21.45C148.825 20.8167 147.475 20.2667 146.109 19.8C144.775 19.3333 143.459 19.1 142.159 19.1ZM183.345 27.3H174.395V49H166.945V27.3H157.995V21.7H183.345V27.3ZM206.081 21.2C209.148 21.2 211.631 22.4 213.531 24.8C215.431 27.1667 216.381 30.6667 216.381 35.3C216.381 38.4 215.931 41.0167 215.031 43.15C214.131 45.25 212.898 46.8333 211.331 47.9C209.765 48.9667 207.948 49.5 205.881 49.5C204.581 49.5 203.448 49.3333 202.481 49C201.548 48.6667 200.748 48.2333 200.081 47.7C199.415 47.1667 198.831 46.6 198.331 46H197.931C198.065 46.6333 198.165 47.3 198.231 48C198.298 48.6667 198.331 49.3333 198.331 50V61H190.881V21.7H196.931L197.981 25.25H198.331C198.831 24.5167 199.431 23.85 200.131 23.25C200.831 22.6167 201.665 22.1167 202.631 21.75C203.631 21.3833 204.781 21.2 206.081 21.2ZM203.681 27.15C202.381 27.15 201.348 27.4167 200.581 27.95C199.815 28.4833 199.248 29.3 198.881 30.4C198.548 31.4667 198.365 32.8167 198.331 34.45V35.25C198.331 37.0167 198.498 38.5167 198.831 39.75C199.165 40.95 199.731 41.8667 200.531 42.5C201.331 43.1333 202.415 43.45 203.781 43.45C204.915 43.45 205.848 43.1333 206.581 42.5C207.315 41.8667 207.865 40.9333 208.231 39.7C208.598 38.4667 208.781 36.9667 208.781 35.2C208.781 32.5333 208.365 30.5333 207.531 29.2C206.731 27.8333 205.448 27.15 203.681 27.15ZM249.822 35.3C249.822 37.5667 249.505 39.5833 248.872 41.35C248.272 43.1167 247.389 44.6167 246.222 45.85C245.089 47.05 243.705 47.9667 242.072 48.6C240.439 49.2 238.589 49.5 236.522 49.5C234.622 49.5 232.855 49.2 231.222 48.6C229.622 47.9667 228.239 47.05 227.072 45.85C225.905 44.6167 224.989 43.1167 224.322 41.35C223.689 39.5833 223.372 37.5667 223.372 35.3C223.372 32.2667 223.905 29.7167 224.972 27.65C226.039 25.55 227.572 23.95 229.572 22.85C231.572 21.75 233.939 21.2 236.672 21.2C239.239 21.2 241.505 21.75 243.472 22.85C245.439 23.95 246.989 25.55 248.122 27.65C249.255 29.7167 249.822 32.2667 249.822 35.3ZM230.972 35.3C230.972 37.1 231.155 38.6167 231.522 39.85C231.922 41.05 232.539 41.9667 233.372 42.6C234.205 43.2 235.289 43.5 236.622 43.5C237.955 43.5 239.022 43.2 239.822 42.6C240.655 41.9667 241.255 41.05 241.622 39.85C242.022 38.6167 242.222 37.1 242.222 35.3C242.222 33.5 242.022 32 241.622 30.8C241.255 29.6 240.655 28.7 239.822 28.1C238.989 27.5 237.905 27.2 236.572 27.2C234.605 27.2 233.172 27.8833 232.272 29.25C231.405 30.5833 230.972 32.6 230.972 35.3ZM284.629 9.95C284.462 11.6833 283.979 13.2167 283.179 14.55C282.379 15.85 281.129 16.8667 279.429 17.6C277.729 18.3333 275.446 18.7 272.579 18.7C269.646 18.7 267.346 18.35 265.679 17.65C264.046 16.9167 262.879 15.9 262.179 14.6C261.479 13.3 261.062 11.75 260.929 9.95H267.579C267.746 11.7833 268.212 13 268.979 13.6C269.746 14.2 270.996 14.5 272.729 14.5C274.162 14.5 275.329 14.1833 276.229 13.55C277.162 12.8833 277.712 11.6833 277.879 9.95H284.629ZM265.679 32.5C265.679 33.0667 265.646 33.7667 265.579 34.6C265.546 35.4333 265.496 36.2833 265.429 37.15C265.396 38.0167 265.346 38.7833 265.279 39.45C265.212 40.1167 265.162 40.5833 265.129 40.85L277.729 21.7H286.679V49H279.479V38.1C279.479 37.2 279.512 36.2167 279.579 35.15C279.646 34.05 279.712 33.0333 279.779 32.1C279.879 31.1333 279.946 30.4 279.979 29.9L267.429 49H258.479V21.7H265.679V32.5Z" fill="white"/>
<path d="M43.2051 71.865C43.2051 71.955 43.2001 72.085 43.1901 72.255C43.1901 72.415 43.1851 72.59 43.1751 72.78C43.1651 72.96 43.1551 73.135 43.1451 73.305C43.1351 73.465 43.1251 73.595 43.1151 73.695L47.4201 66.96H49.0401V75H47.8101V70.26C47.8101 70.1 47.8101 69.89 47.8101 69.63C47.8201 69.37 47.8301 69.115 47.8401 68.865C47.8501 68.605 47.8601 68.41 47.8701 68.28L43.5951 75H41.9601V66.96H43.2051V71.865ZM52.9187 66.96V70.305H57.2837V66.96H58.6037V75H57.2837V71.415H52.9187V75H51.5987V66.96H52.9187ZM70.7945 66.96L67.4795 70.86L71.0795 75H69.5795L66.0995 70.92V75H64.8695V70.92L61.3895 75H59.8895L63.4895 70.86L60.1745 66.96H61.6145L64.8695 70.86V66.96H66.0995V70.86L69.3695 66.96H70.7945ZM75.2115 66.81C75.9015 66.81 76.4915 66.96 76.9815 67.26C77.4815 67.56 77.8615 67.985 78.1215 68.535C78.3915 69.075 78.5265 69.71 78.5265 70.44V71.235H73.0215C73.0415 72.145 73.2715 72.84 73.7115 73.32C74.1615 73.79 74.7865 74.025 75.5865 74.025C76.0965 74.025 76.5465 73.98 76.9365 73.89C77.3365 73.79 77.7465 73.65 78.1665 73.47V74.625C77.7565 74.805 77.3515 74.935 76.9515 75.015C76.5515 75.105 76.0765 75.15 75.5265 75.15C74.7665 75.15 74.0915 74.995 73.5015 74.685C72.9215 74.375 72.4665 73.915 72.1365 73.305C71.8165 72.685 71.6565 71.93 71.6565 71.04C71.6565 70.16 71.8015 69.405 72.0915 68.775C72.3915 68.145 72.8065 67.66 73.3365 67.32C73.8765 66.98 74.5015 66.81 75.2115 66.81ZM75.1965 67.89C74.5665 67.89 74.0665 68.095 73.6965 68.505C73.3365 68.905 73.1215 69.465 73.0515 70.185H77.1465C77.1465 69.725 77.0765 69.325 76.9365 68.985C76.7965 68.645 76.5815 68.38 76.2915 68.19C76.0115 67.99 75.6465 67.89 75.1965 67.89ZM81.8933 66.96V70.305H86.2583V66.96H87.5783V75H86.2583V71.415H81.8933V75H80.5733V66.96H81.8933ZM93.2291 66.81C93.9191 66.81 94.5091 66.96 94.9991 67.26C95.4991 67.56 95.8791 67.985 96.1391 68.535C96.4091 69.075 96.5441 69.71 96.5441 70.44V71.235H91.0391C91.0591 72.145 91.2891 72.84 91.7291 73.32C92.1791 73.79 92.8041 74.025 93.6041 74.025C94.1141 74.025 94.5641 73.98 94.9541 73.89C95.3541 73.79 95.7641 73.65 96.1841 73.47V74.625C95.7741 74.805 95.3691 74.935 94.9691 75.015C94.5691 75.105 94.0941 75.15 93.5441 75.15C92.7841 75.15 92.1091 74.995 91.5191 74.685C90.9391 74.375 90.4841 73.915 90.1541 73.305C89.8341 72.685 89.6741 71.93 89.6741 71.04C89.6741 70.16 89.8191 69.405 90.1091 68.775C90.4091 68.145 90.8241 67.66 91.3541 67.32C91.8941 66.98 92.5191 66.81 93.2291 66.81ZM93.2141 67.89C92.5841 67.89 92.0841 68.095 91.7141 68.505C91.3541 68.905 91.1391 69.465 91.0691 70.185H95.1641C95.1641 69.725 95.0941 69.325 94.9541 68.985C94.8141 68.645 94.5991 68.38 94.3091 68.19C94.0291 67.99 93.6641 67.89 93.2141 67.89ZM102.416 66.81C103.406 66.81 104.201 67.155 104.801 67.845C105.411 68.535 105.716 69.575 105.716 70.965C105.716 71.875 105.576 72.645 105.296 73.275C105.026 73.895 104.641 74.365 104.141 74.685C103.651 74.995 103.071 75.15 102.401 75.15C101.991 75.15 101.626 75.095 101.306 74.985C100.986 74.875 100.711 74.735 100.481 74.565C100.261 74.385 100.071 74.19 99.9109 73.98H99.8209C99.8409 74.15 99.8609 74.365 99.8809 74.625C99.9009 74.885 99.9109 75.11 99.9109 75.3V78.6H98.5909V66.96H99.6709L99.8509 68.055H99.9109C100.071 67.825 100.261 67.615 100.481 67.425C100.711 67.235 100.981 67.085 101.291 66.975C101.611 66.865 101.986 66.81 102.416 66.81ZM102.176 67.92C101.636 67.92 101.201 68.025 100.871 68.235C100.541 68.435 100.301 68.74 100.151 69.15C100.001 69.56 99.9209 70.08 99.9109 70.71V70.965C99.9109 71.625 99.9809 72.185 100.121 72.645C100.261 73.105 100.496 73.455 100.826 73.695C101.166 73.935 101.626 74.055 102.206 74.055C102.696 74.055 103.096 73.92 103.406 73.65C103.726 73.38 103.961 73.015 104.111 72.555C104.271 72.085 104.351 71.55 104.351 70.95C104.351 70.03 104.171 69.295 103.811 68.745C103.461 68.195 102.916 67.92 102.176 67.92ZM109.139 66.96V70.305H113.504V66.96H114.824V75H113.504V71.415H109.139V75H107.819V66.96H109.139ZM117.37 75V66.96H118.69V70.26H120.775C121.475 70.26 122.05 70.345 122.5 70.515C122.95 70.685 123.285 70.94 123.505 71.28C123.725 71.61 123.835 72.03 123.835 72.54C123.835 73.04 123.725 73.475 123.505 73.845C123.295 74.215 122.96 74.5 122.5 74.7C122.05 74.9 121.455 75 120.715 75H117.37ZM120.595 73.935C121.165 73.935 121.63 73.84 121.99 73.65C122.35 73.45 122.53 73.105 122.53 72.615C122.53 72.125 122.365 71.795 122.035 71.625C121.705 71.445 121.23 71.355 120.61 71.355H118.69V73.935H120.595ZM125.17 75V66.96H126.49V75H125.17ZM132.15 66.81C132.84 66.81 133.43 66.96 133.92 67.26C134.42 67.56 134.8 67.985 135.06 68.535C135.33 69.075 135.465 69.71 135.465 70.44V71.235H129.96C129.98 72.145 130.21 72.84 130.65 73.32C131.1 73.79 131.725 74.025 132.525 74.025C133.035 74.025 133.485 73.98 133.875 73.89C134.275 73.79 134.685 73.65 135.105 73.47V74.625C134.695 74.805 134.29 74.935 133.89 75.015C133.49 75.105 133.015 75.15 132.465 75.15C131.705 75.15 131.03 74.995 130.44 74.685C129.86 74.375 129.405 73.915 129.075 73.305C128.755 72.685 128.595 71.93 128.595 71.04C128.595 70.16 128.74 69.405 129.03 68.775C129.33 68.145 129.745 67.66 130.275 67.32C130.815 66.98 131.44 66.81 132.15 66.81ZM132.135 67.89C131.505 67.89 131.005 68.095 130.635 68.505C130.275 68.905 130.06 69.465 129.99 70.185H134.085C134.085 69.725 134.015 69.325 133.875 68.985C133.735 68.645 133.52 68.38 133.23 68.19C132.95 67.99 132.585 67.89 132.135 67.89ZM146.295 66.96H147.735L144.3 70.83L148.02 75H146.49L142.86 70.92V75H141.54V66.96H142.86V70.86L146.295 66.96ZM156.177 70.965C156.177 71.635 156.087 72.23 155.907 72.75C155.737 73.26 155.487 73.695 155.157 74.055C154.837 74.415 154.442 74.69 153.972 74.88C153.512 75.06 152.997 75.15 152.427 75.15C151.897 75.15 151.407 75.06 150.957 74.88C150.507 74.69 150.117 74.415 149.787 74.055C149.457 73.695 149.197 73.26 149.007 72.75C148.827 72.23 148.737 71.635 148.737 70.965C148.737 70.075 148.887 69.325 149.187 68.715C149.487 68.095 149.917 67.625 150.477 67.305C151.037 66.975 151.702 66.81 152.472 66.81C153.202 66.81 153.842 66.975 154.392 67.305C154.952 67.625 155.387 68.095 155.697 68.715C156.017 69.325 156.177 70.075 156.177 70.965ZM150.102 70.965C150.102 71.595 150.182 72.145 150.342 72.615C150.512 73.075 150.772 73.43 151.122 73.68C151.472 73.93 151.917 74.055 152.457 74.055C152.997 74.055 153.442 73.93 153.792 73.68C154.142 73.43 154.397 73.075 154.557 72.615C154.727 72.145 154.812 71.595 154.812 70.965C154.812 70.325 154.727 69.78 154.557 69.33C154.387 68.88 154.127 68.535 153.777 68.295C153.437 68.045 152.992 67.92 152.442 67.92C151.622 67.92 151.027 68.19 150.657 68.73C150.287 69.27 150.102 70.015 150.102 70.965ZM166.894 66.96V75H165.709V69.87C165.709 69.66 165.714 69.44 165.724 69.21C165.744 68.98 165.764 68.755 165.784 68.535H165.739L163.114 75H162.004L159.454 68.535H159.409C159.429 68.755 159.439 68.98 159.439 69.21C159.449 69.44 159.454 69.675 159.454 69.915V75H158.269V66.96H160.024L162.559 73.425L165.139 66.96H166.894ZM178.085 66.96V75H176.9V69.87C176.9 69.66 176.905 69.44 176.915 69.21C176.935 68.98 176.955 68.755 176.975 68.535H176.93L174.305 75H173.195L170.645 68.535H170.6C170.62 68.755 170.63 68.98 170.63 69.21C170.64 69.44 170.645 69.675 170.645 69.915V75H169.46V66.96H171.215L173.75 73.425L176.33 66.96H178.085ZM179.391 66.96H180.801L182.541 71.535C182.641 71.805 182.731 72.065 182.811 72.315C182.901 72.565 182.981 72.81 183.051 73.05C183.121 73.28 183.176 73.505 183.216 73.725H183.276C183.336 73.475 183.431 73.15 183.561 72.75C183.691 72.34 183.826 71.93 183.966 71.52L185.601 66.96H187.026L183.561 76.11C183.371 76.61 183.146 77.045 182.886 77.415C182.636 77.795 182.326 78.085 181.956 78.285C181.596 78.495 181.156 78.6 180.636 78.6C180.396 78.6 180.186 78.585 180.006 78.555C179.826 78.535 179.671 78.51 179.541 78.48V77.43C179.651 77.45 179.781 77.47 179.931 77.49C180.091 77.51 180.256 77.52 180.426 77.52C180.736 77.52 181.001 77.46 181.221 77.34C181.451 77.23 181.646 77.065 181.806 76.845C181.966 76.635 182.101 76.385 182.211 76.095L182.631 75.03L179.391 66.96ZM189.618 66.96V70.305H193.983V66.96H195.303V75H193.983V71.415H189.618V75H188.298V66.96H189.618ZM199.094 71.865C199.094 71.955 199.089 72.085 199.079 72.255C199.079 72.415 199.074 72.59 199.064 72.78C199.054 72.96 199.044 73.135 199.034 73.305C199.024 73.465 199.014 73.595 199.004 73.695L203.309 66.96H204.929V75H203.699V70.26C203.699 70.1 203.699 69.89 203.699 69.63C203.709 69.37 203.719 69.115 203.729 68.865C203.739 68.605 203.749 68.41 203.759 68.28L199.484 75H197.849V66.96H199.094V71.865ZM212.242 66.96H213.682L210.247 70.83L213.967 75H212.437L208.807 70.92V75H207.487V66.96H208.807V70.86L212.242 66.96ZM218.472 66.825C219.452 66.825 220.177 67.04 220.647 67.47C221.117 67.9 221.352 68.585 221.352 69.525V75H220.392L220.137 73.86H220.077C219.847 74.15 219.607 74.395 219.357 74.595C219.117 74.785 218.837 74.925 218.517 75.015C218.207 75.105 217.827 75.15 217.377 75.15C216.897 75.15 216.462 75.065 216.072 74.895C215.692 74.725 215.392 74.465 215.172 74.115C214.952 73.755 214.842 73.305 214.842 72.765C214.842 71.965 215.157 71.35 215.787 70.92C216.417 70.48 217.387 70.24 218.697 70.2L220.062 70.155V69.675C220.062 69.005 219.917 68.54 219.627 68.28C219.337 68.02 218.927 67.89 218.397 67.89C217.977 67.89 217.577 67.955 217.197 68.085C216.817 68.205 216.462 68.345 216.132 68.505L215.727 67.515C216.077 67.325 216.492 67.165 216.972 67.035C217.452 66.895 217.952 66.825 218.472 66.825ZM218.862 71.115C217.862 71.155 217.167 71.315 216.777 71.595C216.397 71.875 216.207 72.27 216.207 72.78C216.207 73.23 216.342 73.56 216.612 73.77C216.892 73.98 217.247 74.085 217.677 74.085C218.357 74.085 218.922 73.9 219.372 73.53C219.822 73.15 220.047 72.57 220.047 71.79V71.07L218.862 71.115ZM231.77 77.79H230.48V75H223.835V66.96H225.155V73.89H229.31V66.96H230.63V73.905H231.77V77.79ZM234.558 71.865C234.558 71.955 234.553 72.085 234.543 72.255C234.543 72.415 234.538 72.59 234.528 72.78C234.518 72.96 234.508 73.135 234.498 73.305C234.488 73.465 234.478 73.595 234.468 73.695L238.773 66.96H240.393V75H239.163V70.26C239.163 70.1 239.163 69.89 239.163 69.63C239.173 69.37 239.183 69.115 239.193 68.865C239.203 68.605 239.213 68.41 239.223 68.28L234.948 75H233.313V66.96H234.558V71.865ZM244.196 71.865C244.196 71.955 244.191 72.085 244.181 72.255C244.181 72.415 244.176 72.59 244.166 72.78C244.156 72.96 244.146 73.135 244.136 73.305C244.126 73.465 244.116 73.595 244.106 73.695L248.411 66.96H250.031V75H248.801V70.26C248.801 70.1 248.801 69.89 248.801 69.63C248.811 69.37 248.821 69.115 248.831 68.865C248.841 68.605 248.851 68.41 248.861 68.28L244.586 75H242.951V66.96H244.196V71.865Z" fill="#C20306"/>
</svg>
