<svg width="70" height="70" viewBox="0 0 70 70" fill="none" xmlns="http://www.w3.org/2000/svg">
<path d="M12.425 12.425C8.75 16.135 8.75 22.0675 8.75 33.95V36.05C8.75 47.915 8.75 53.8475 12.425 57.575C16.135 61.25 22.0675 61.25 33.95 61.25H36.05C47.915 61.25 53.8475 61.25 57.575 57.575C61.25 53.865 61.25 47.9325 61.25 36.05V33.95C61.25 22.085 61.25 16.1525 57.575 12.425C53.865 8.75 47.9325 8.75 36.05 8.75H33.95C22.085 8.75 16.1525 8.75 12.425 12.425ZM17.605 24.7275H23.625C23.8175 34.7375 28.2275 38.9725 31.7275 39.8475V24.7275H37.38V33.355C40.8275 32.9875 44.4675 29.05 45.6925 24.71H51.3275C50.8677 26.9565 49.9498 29.084 48.6309 30.9599C47.3121 32.8357 45.6208 34.4195 43.6625 35.6125C45.8484 36.7 47.7787 38.2388 49.3262 40.1271C50.8737 42.0155 52.0032 44.2106 52.64 46.5675H46.4275C45.0975 42.42 41.7725 39.2 37.38 38.7625V46.5675H36.68C24.71 46.5675 17.885 38.3775 17.605 24.7275Z" fill="white"/>
</svg>
