<svg width="49" height="49" viewBox="0 0 49 49" fill="none" xmlns="http://www.w3.org/2000/svg">
<path d="M2 41.375C2 38.3913 3.18526 35.5298 5.29505 33.42C7.40483 31.3103 10.2663 30.125 13.25 30.125H35.75C38.7337 30.125 41.5952 31.3103 43.7049 33.42C45.8147 35.5298 47 38.3913 47 41.375C47 42.8668 46.4074 44.2976 45.3525 45.3525C44.2976 46.4074 42.8668 47 41.375 47H7.625C6.13316 47 4.70242 46.4074 3.64752 45.3525C2.59263 44.2976 2 42.8668 2 41.375Z" stroke="white" stroke-width="3" stroke-linejoin="round"/>
<path d="M24.5 18.875C29.1599 18.875 32.9375 15.0974 32.9375 10.4375C32.9375 5.7776 29.1599 2 24.5 2C19.8401 2 16.0625 5.7776 16.0625 10.4375C16.0625 15.0974 19.8401 18.875 24.5 18.875Z" stroke="white" stroke-width="3"/>
</svg>
