<svg width="70" height="70" viewBox="0 0 70 70" fill="none" xmlns="http://www.w3.org/2000/svg">
<path d="M35 5.8335C18.9 5.8335 5.83331 18.9002 5.83331 35.0002C5.83331 51.1002 18.9 64.1668 35 64.1668C51.1 64.1668 64.1666 51.1002 64.1666 35.0002C64.1666 18.9002 51.1 5.8335 35 5.8335ZM48.5333 25.6668C48.0958 30.2752 46.2 41.4752 45.2375 46.6377C44.8291 48.8252 44.0125 49.5543 43.2541 49.6418C41.5625 49.7877 40.2791 48.5335 38.6458 47.4543C36.0791 45.7627 34.6208 44.7127 32.1416 43.0793C29.2541 41.1835 31.1208 40.1335 32.7833 38.4418C33.2208 38.0043 40.6875 31.2085 40.8333 30.596C40.8536 30.5032 40.8509 30.4069 40.8255 30.3154C40.8 30.2239 40.7527 30.14 40.6875 30.071C40.5125 29.9252 40.2791 29.9835 40.075 30.0127C39.8125 30.071 35.7291 32.7835 27.7666 38.1502C26.6 38.9377 25.55 39.346 24.6166 39.3168C23.5666 39.2877 21.5833 38.7335 20.0958 38.2377C18.2583 37.6543 16.8291 37.3335 16.9458 36.3127C17.0041 35.7877 17.7333 35.2627 19.1041 34.7085C27.6208 31.0043 33.2791 28.5543 36.1083 27.3877C44.2166 24.0043 45.8791 23.421 46.9875 23.421C47.2208 23.421 47.775 23.4793 48.125 23.771C48.4166 24.0043 48.5041 24.3252 48.5333 24.5585C48.5041 24.7335 48.5625 25.2585 48.5333 25.6668Z" fill="white"/>
</svg>
